<?xml version="1.0" encoding="UTF-8"?>
<!DOCTYPE svg PUBLIC "-//W3C//DTD SVG 1.1//EN" "http://www.w3.org/Graphics/SVG/1.1/DTD/svg11.dtd">
<!-- Creator: CorelDRAW 2021 (64-Bit) -->
<svg xmlns="http://www.w3.org/2000/svg" xml:space="preserve" width="18.6799mm" height="14.674mm" version="1.1" style="shape-rendering:geometricPrecision; text-rendering:geometricPrecision; image-rendering:optimizeQuality; fill-rule:evenodd; clip-rule:evenodd"
viewBox="0 0 975.11 766"
 xmlns:xlink="http://www.w3.org/1999/xlink"
 xmlns:xodm="http://www.corel.com/coreldraw/odm/2003">
 <defs>
  <style type="text/css">
   <![CDATA[
    .fil0 {fill:#F2F2F2;fill-rule:nonzero}
   ]]>
  </style>
 </defs>
 <g id="Capa_x0020_1">
  <metadata id="CorelCorpID_0Corel-Layer"/>
  <path class="fil0" d="M907.81 625.23c0,40.52 -32.95,73.49 -73.46,73.49l-693.56 0c-40.54,0 -73.49,-32.97 -73.49,-73.49l0 -484.47c0,-9.86 1.98,-19.25 5.52,-27.84l293.37 332.87c30.69,34.81 74.95,54.83 121.37,54.83 46.44,0 90.67,-20.02 121.39,-54.83l293.35 -332.87c3.54,8.6 5.51,17.99 5.51,27.84l0 484.47zm-73.46 -557.93c5.75,0 11.32,0.72 16.71,1.98l-292.59 332.02c-17.93,20.34 -43.79,32.03 -70.91,32.03 -27.12,0 -52.96,-11.68 -70.9,-32.03l-292.6 -332.02c5.38,-1.26 10.98,-1.98 16.73,-1.98l693.56 0zm0 -67.3l-693.56 0c-77.64,0 -140.79,63.14 -140.79,140.76l0 484.47c0,77.64 63.15,140.77 140.79,140.77l693.56 0c77.62,0 140.77,-63.12 140.77,-140.77l0 -484.47c0,-77.62 -63.14,-140.76 -140.77,-140.76z"/>
 </g>
</svg>
