<?xml version="1.0" encoding="UTF-8"?>
<!DOCTYPE svg PUBLIC "-//W3C//DTD SVG 1.1//EN" "http://www.w3.org/Graphics/SVG/1.1/DTD/svg11.dtd">
<!-- Creator: CorelDRAW 2021 (64-Bit) -->
<svg xmlns="http://www.w3.org/2000/svg" xml:space="preserve" width="17.0404mm" height="16.9368mm" version="1.1" style="shape-rendering:geometricPrecision; text-rendering:geometricPrecision; image-rendering:optimizeQuality; fill-rule:evenodd; clip-rule:evenodd"
viewBox="0 0 241.95 240.48"
 xmlns:xlink="http://www.w3.org/1999/xlink"
 xmlns:xodm="http://www.corel.com/coreldraw/odm/2003">
 <defs>
  <style type="text/css">
   <![CDATA[
    .fil0 {fill:white;fill-rule:nonzero}
   ]]>
  </style>
 </defs>
 <g id="Capa_x0020_1">
  <metadata id="CorelCorpID_0Corel-Layer"/>
  <path class="fil0" d="M241.95 120.97c0,-66.81 -54.17,-120.98 -120.97,-120.98 -66.82,0 -120.98,54.17 -120.98,120.98 0,60.38 44.24,110.42 102.07,119.5l0 -84.54 -30.71 0 0 -34.96 30.71 0 0 -26.66c0,-30.32 18.07,-47.07 45.69,-47.07 13.24,0 27.09,2.36 27.09,2.36l0 29.77 -15.26 0c-15.02,0 -19.71,9.33 -19.71,18.89l0 22.7 33.55 0 -5.36 34.96 -28.19 0 0 84.54c57.83,-9.08 102.07,-59.12 102.07,-119.5z"/>
 </g>
</svg>
