<?xml version="1.0" encoding="UTF-8"?>
<!DOCTYPE svg PUBLIC "-//W3C//DTD SVG 1.1//EN" "http://www.w3.org/Graphics/SVG/1.1/DTD/svg11.dtd">
<!-- Creator: CorelDRAW 2021 (64-Bit) -->
<svg xmlns="http://www.w3.org/2000/svg" xml:space="preserve" width="17.4498mm" height="16.9869mm" version="1.1" style="shape-rendering:geometricPrecision; text-rendering:geometricPrecision; image-rendering:optimizeQuality; fill-rule:evenodd; clip-rule:evenodd"
viewBox="0 0 709.42 690.6"
 xmlns:xlink="http://www.w3.org/1999/xlink"
 xmlns:xodm="http://www.corel.com/coreldraw/odm/2003">
 <defs>
  <style type="text/css">
   <![CDATA[
    .fil0 {fill:white;fill-rule:nonzero}
   ]]>
  </style>
 </defs>
 <g id="Capa_x0020_1">
  <metadata id="CorelCorpID_0Corel-Layer"/>
  <path class="fil0" d="M709.42 354.71c0,-195.9 -158.81,-354.71 -354.71,-354.71 -195.9,0 -354.71,158.81 -354.71,354.71 0,155.49 100.06,287.6 239.29,335.49 8.49,-6.13 18.26,-13.68 18.26,-26.41 0,-19.51 -0.42,-69.69 -0.42,-69.69 0,0 -15.4,2.62 -37.37,2.62 -55.36,0 -72.87,-35.13 -81.2,-54.8 -10.84,-25.61 -24.91,-37.64 -39.85,-47.25 -9.18,-5.91 -11.29,-12.86 -0.67,-14.86 49,-9.18 61.54,55.27 94.26,65.55 23.36,7.32 53.4,4.16 68.34,-5.46 1.97,-19.68 16.24,-36.71 28.12,-45.68 -83.25,-7.95 -132.6,-36.71 -158.19,-82.93l-2.74 -5.18 -6.43 -14.68 -1.9 -5.26c-8.02,-23.46 -11.57,-50.33 -11.57,-80.34 0,-53.28 16.7,-73.39 39.11,-101.79 -17.14,-60.74 6.16,-102.26 6.16,-102.26 0,0 36.03,-7.43 104.14,41.08 36.91,-15.73 135.34,-17.04 181.92,-3.5 28.56,-18.79 80.85,-45.45 101.95,-37.98 5.71,9.14 18.01,35.8 7.47,94.36 7.16,12.85 44.38,40.2 44.52,117.56 -0.59,28.53 -3.59,52.62 -9.12,72.98l-3.08 10.42c0,0 -1.76,4.91 -3.68,9.59l-2.25 5.18c-24.69,53.95 -75.35,74.08 -157.21,82.46 26.52,16.61 34.13,37.44 34.13,93.82 0,56.38 -0.76,63.95 -0.58,76.92 0.15,11.46 9.32,19.7 17.57,25.94 139.83,-47.56 240.43,-179.98 240.43,-335.89z"/>
  <path class="fil0" d="M709.42 354.71c0,-195.9 -158.81,-354.71 -354.71,-354.71 -195.9,0 -354.71,158.81 -354.71,354.71 0,155.49 100.06,287.6 239.29,335.49 8.49,-6.13 18.26,-13.68 18.26,-26.41 0,-19.51 -0.42,-69.69 -0.42,-69.69 0,0 -15.4,2.62 -37.37,2.62 -55.36,0 -72.87,-35.13 -81.2,-54.8 -10.85,-25.61 -24.91,-37.64 -39.85,-47.25 -9.18,-5.91 -11.29,-12.86 -0.67,-14.86 49.01,-9.18 61.54,55.27 94.27,65.55 23.36,7.32 53.4,4.16 68.34,-5.46 1.97,-19.68 16.24,-36.71 28.12,-45.68 -83.25,-7.95 -132.6,-36.71 -158.19,-82.93l-2.74 -5.18 -6.44 -14.68 -1.9 -5.26c-8.01,-23.46 -11.57,-50.33 -11.57,-80.34 0,-53.28 16.7,-73.39 39.11,-101.79 -17.14,-60.74 6.15,-102.26 6.15,-102.26 0,0 36.03,-7.43 104.15,41.08 36.91,-15.73 135.34,-17.04 181.92,-3.5 28.56,-18.79 80.85,-45.45 101.95,-37.98 5.71,9.14 18.01,35.8 7.47,94.36 7.16,12.85 44.38,40.2 44.52,117.56 -0.6,28.53 -3.59,52.62 -9.12,72.98l-3.07 10.42c0,0 -1.76,4.91 -3.68,9.59l-2.25 5.18c-24.69,53.95 -75.35,74.08 -157.21,82.46 26.52,16.61 34.13,37.44 34.13,93.82 0,56.38 -0.76,63.95 -0.58,76.92 0.15,11.46 9.32,19.7 17.57,25.94 139.83,-47.56 240.43,-179.98 240.43,-335.89z"/>
  <path class="fil0" d="M709.42 354.71c0,-195.9 -158.81,-354.71 -354.71,-354.71 -195.9,0 -354.71,158.81 -354.71,354.71 0,155.49 100.06,287.6 239.29,335.49 8.49,-6.13 18.26,-13.68 18.26,-26.41 0,-19.51 -0.42,-69.69 -0.42,-69.69 0,0 -15.4,2.62 -37.37,2.62 -55.37,0 -72.87,-35.13 -81.2,-54.8 -10.85,-25.61 -24.91,-37.64 -39.85,-47.25 -9.18,-5.91 -11.29,-12.86 -0.67,-14.86 49.01,-9.18 61.54,55.27 94.27,65.55 23.36,7.32 53.4,4.16 68.34,-5.46 1.97,-19.68 16.24,-36.71 28.12,-45.68 -83.25,-7.95 -132.6,-36.71 -158.19,-82.93l-2.74 -5.18 -6.44 -14.68 -1.9 -5.26c-8.01,-23.46 -11.56,-50.33 -11.56,-80.34 0,-53.28 16.7,-73.39 39.11,-101.79 -17.14,-60.74 6.15,-102.26 6.15,-102.26 0,0 36.04,-7.43 104.15,41.08 36.91,-15.73 135.34,-17.04 181.92,-3.5 28.56,-18.79 80.85,-45.45 101.95,-37.98 5.71,9.14 18.01,35.8 7.47,94.36 7.16,12.85 44.38,40.2 44.52,117.56 -0.6,28.53 -3.59,52.62 -9.12,72.98l-3.08 10.42c0,0 -1.76,4.91 -3.68,9.59l-2.25 5.18c-24.69,53.95 -75.35,74.08 -157.21,82.46 26.52,16.61 34.13,37.44 34.13,93.82 0,56.38 -0.76,63.95 -0.58,76.92 0.15,11.46 9.32,19.7 17.57,25.94 139.83,-47.56 240.43,-179.98 240.43,-335.89z"/>
 </g>
</svg>
