<?xml version="1.0" encoding="UTF-8"?>
<!DOCTYPE svg PUBLIC "-//W3C//DTD SVG 1.1//EN" "http://www.w3.org/Graphics/SVG/1.1/DTD/svg11.dtd">
<!-- Creator: CorelDRAW 2021 (64-Bit) -->
<svg xmlns="http://www.w3.org/2000/svg" xml:space="preserve" width="17.8442mm" height="17.8878mm" version="1.1" style="shape-rendering:geometricPrecision; text-rendering:geometricPrecision; image-rendering:optimizeQuality; fill-rule:evenodd; clip-rule:evenodd"
viewBox="0 0 160.22 160.61"
 xmlns:xlink="http://www.w3.org/1999/xlink"
 xmlns:xodm="http://www.corel.com/coreldraw/odm/2003">
 <defs>
  <style type="text/css">
   <![CDATA[
    .fil1 {fill:white}
    .fil0 {fill:white;fill-rule:nonzero}
   ]]>
  </style>
 </defs>
 <g id="Capa_x0020_1">
  <metadata id="CorelCorpID_0Corel-Layer"/>
  <path class="fil0" d="M45.33 132.95l2.72 1.62c9.98,5.95 21.34,9.09 32.84,9.09 35.48,0 64.33,-28.86 64.33,-64.33 0,-35.47 -28.86,-64.33 -64.33,-64.33 -35.47,0 -64.33,28.86 -64.33,64.33 0,11.71 3.26,23.25 9.42,33.35l1.67 2.74 -6.43 23.99 24.12 -6.46zm-45.33 27.66l11.51 -42.96c-6.52,-11.76 -9.94,-24.94 -9.94,-38.33 0,-43.74 35.58,-79.33 79.32,-79.33 43.74,0 79.33,35.59 79.33,79.33 0,43.74 -35.59,79.33 -79.33,79.33 -13.13,0 -26.1,-3.32 -37.7,-9.61l-43.18 11.56z"/>
  <path class="fil1" d="M110.4 90.36c-3.27,-1.96 -7.51,-4.14 -11.36,-2.57 -2.95,1.21 -4.83,5.83 -6.74,8.19 -0.98,1.21 -2.15,1.4 -3.66,0.79 -11.08,-4.41 -19.56,-11.81 -25.68,-22 -1.04,-1.59 -0.85,-2.83 0.4,-4.3 1.85,-2.17 4.17,-4.64 4.67,-7.57 0.5,-2.93 -0.88,-6.35 -2.09,-8.97 -1.55,-3.33 -3.28,-8.09 -6.62,-9.98 -3.07,-1.73 -7.11,-0.76 -9.85,1.46 -4.72,3.85 -7,9.87 -6.93,15.84 0.02,1.7 0.23,3.39 0.63,5.03 0.95,3.94 2.77,7.62 4.82,11.11 1.54,2.64 3.22,5.2 5.03,7.66 5.93,8.05 13.3,15.04 21.83,20.27 4.27,2.61 8.86,4.9 13.61,6.47 5.33,1.76 10.09,3.59 15.85,2.5 6.03,-1.14 11.98,-4.87 14.37,-10.68 0.71,-1.73 1.06,-3.64 0.67,-5.46 -0.82,-3.76 -5.9,-5.99 -8.95,-7.81z"/>
 </g>
</svg>
