<?xml version="1.0" encoding="UTF-8"?>
<!DOCTYPE svg PUBLIC "-//W3C//DTD SVG 1.1//EN" "http://www.w3.org/Graphics/SVG/1.1/DTD/svg11.dtd">
<!-- Creator: CorelDRAW 2021 (64-Bit) -->
<svg xmlns="http://www.w3.org/2000/svg" xml:space="preserve" width="28.6074mm" height="28.3528mm" version="1.1" style="shape-rendering:geometricPrecision; text-rendering:geometricPrecision; image-rendering:optimizeQuality; fill-rule:evenodd; clip-rule:evenodd"
viewBox="0 0 381.83 378.43"
 xmlns:xlink="http://www.w3.org/1999/xlink"
 xmlns:xodm="http://www.corel.com/coreldraw/odm/2003">
 <defs>
  <style type="text/css">
   <![CDATA[
    .fil0 {fill:#FFCC00;fill-rule:nonzero}
   ]]>
  </style>
 </defs>
 <g id="Capa_x0020_1">
  <metadata id="CorelCorpID_0Corel-Layer"/>
  <path class="fil0" d="M62.91 303.29c5.21,0 9.69,2.1 13.45,6.29 3.76,4.2 7.59,8.75 11.5,13.67 3.91,4.92 8.03,9.4 12.37,13.45 4.34,4.05 9.84,6.07 16.49,6.07 5.21,0 9.54,-0.94 13.02,-2.82 3.47,-1.88 6.51,-4.34 9.11,-7.38 2.6,-3.04 5.13,-6.44 7.59,-10.2 2.46,-3.76 5.28,-7.38 8.46,-10.85 6.36,-14.17 11.43,-29.36 15.19,-45.56 3.76,-16.2 7.02,-32.76 9.76,-49.68 2.75,-16.92 5.35,-33.99 7.81,-51.2 2.46,-17.21 5.57,-33.92 9.33,-50.11 6.36,-0.87 11.06,0.29 14.1,3.47 3.04,3.18 6.44,6.07 10.2,8.68 -1.45,5.78 -2.17,11.71 -2.17,17.79 0,6.08 0.14,12.51 0.43,19.31 0.29,6.8 0.51,13.74 0.65,20.83 0.15,7.09 -0.22,14.54 -1.08,22.35 -1.74,12.73 -3.62,26.54 -5.64,41.44 -2.02,14.9 -4.77,29.58 -8.24,44.04 -3.47,14.46 -7.81,28.2 -13.02,41.22 -5.21,13.02 -11.71,23.86 -19.53,32.54 -6.07,6.65 -13.38,10.34 -21.91,11.06 -8.53,0.72 -17.21,-0.43 -26.03,-3.47 -8.82,-3.04 -17.21,-7.45 -25.17,-13.23 -7.95,-5.79 -14.25,-11.72 -18.88,-17.79 -2.31,-9.26 -4.85,-16.99 -7.59,-23.21 -2.75,-6.22 -6.15,-11.79 -10.2,-16.71zm-61.18 -131.9c-1.74,-6.36 -0.43,-12.66 3.91,-18.88 4.34,-6.22 10.12,-12.15 17.36,-17.79 7.23,-5.64 15.11,-10.85 23.65,-15.62 8.53,-4.77 15.98,-8.89 22.35,-12.37 18.51,-10.7 38.33,-20.61 59.44,-29.72 21.12,-9.11 42.59,-17.43 64.43,-24.95 21.84,-7.52 43.61,-14.39 65.3,-20.61 21.69,-6.22 42.38,-11.64 62.05,-16.27 1.45,-1.74 2.82,-2.39 4.12,-1.95 1.3,0.43 2.1,1.95 2.39,4.56 2.6,-2.6 6.15,-4.85 10.63,-6.72 4.48,-1.88 9.26,-3.54 14.32,-4.99 5.06,-1.45 10.27,-2.6 15.62,-3.47 5.35,-0.87 10.2,-1.74 14.54,-2.6 -4.05,7.52 -9.83,13.81 -17.36,18.87 -7.52,5.06 -15.33,9.18 -23.43,12.37 -13.88,5.79 -28.13,11.14 -42.74,16.05 -14.61,4.92 -29.22,9.98 -43.82,15.19 -14.61,5.21 -29,10.78 -43.17,16.71 -14.17,5.93 -27.77,12.51 -40.79,19.74 -3.18,0 -4.92,1.09 -5.21,3.26 -0.29,2.17 -1.45,3.98 -3.47,5.42 -14.75,3.47 -28.78,8.97 -42.09,16.49 -13.31,7.52 -26.4,14.97 -39.27,22.35 -12.87,7.38 -25.74,13.74 -38.62,19.09 -12.87,5.35 -26.25,7.3 -40.14,5.86z"/>
 </g>
</svg>
