<?xml version="1.0" encoding="UTF-8"?>
<!DOCTYPE svg PUBLIC "-//W3C//DTD SVG 1.1//EN" "http://www.w3.org/Graphics/SVG/1.1/DTD/svg11.dtd">
<!-- Creator: CorelDRAW 2021 (64-Bit) -->
<svg xmlns="http://www.w3.org/2000/svg" xml:space="preserve" width="35px" height="33px" version="1.1" style="shape-rendering:geometricPrecision; text-rendering:geometricPrecision; image-rendering:optimizeQuality; fill-rule:evenodd; clip-rule:evenodd"
viewBox="0 0 0.63 0.61"
 xmlns:xlink="http://www.w3.org/1999/xlink"
 xmlns:xodm="http://www.corel.com/coreldraw/odm/2003">
 <defs>
  <style type="text/css">
   <![CDATA[
    .fil0 {fill:#FEFEFE;fill-rule:nonzero}
   ]]>
  </style>
 </defs>
 <g id="Capa_x0020_1">
  <metadata id="CorelCorpID_0Corel-Layer"/>
  <path class="fil0" d="M0.35 0.61l0 -0.23c0,-0.01 0.01,-0.03 0.01,-0.03 0.01,-0.03 0.03,-0.05 0.07,-0.05 0.05,0 0.07,0.03 0.07,0.09l0 0.22 0.13 0 0 -0.24c0,-0.12 -0.06,-0.18 -0.15,-0.18 -0.07,0 -0.11,0.04 -0.13,0.07l0 0 0 0c0,0 0,0 0,0l0 -0.06 -0.13 0c0,0.04 0,0.41 0,0.41l0.13 0z"/>
  <path class="fil0" d="M0.08 0.14c0.04,0 0.07,-0.03 0.07,-0.07 0,-0.04 -0.03,-0.07 -0.07,-0.07 -0.05,0 -0.08,0.03 -0.08,0.07 0,0.04 0.03,0.07 0.08,0.07l0 0z"/>
  <path class="fil0" d="M0.14 0.61l0 -0.41 -0.13 0 0 0.41 0.13 0z"/>
 </g>
</svg>
